<svg width="88" height="90" viewBox="0 0 88 90" fill="none" xmlns="http://www.w3.org/2000/svg">
<path fillRule="evenodd" clip-rule="evenodd" d="M26.4043 48.8138L45.3044 29.3135L64.2006 48.8138L45.3044 68.3142L26.4043 48.8138Z" fill="#FEFEFE"/>
<path d="M26.1743 48.576L45.3053 28.8374C51.7592 35.4964 58.2132 42.1553 64.6672 48.8142C58.2132 55.4732 51.7592 62.1321 45.3053 68.7911C38.8513 62.1321 32.3935 55.4732 25.9434 48.8142L26.1743 48.576ZM45.3053 29.7904L26.867 48.8142L45.3053 67.8341L63.7397 48.8142L45.3053 29.7904Z" fill="#171A36"/>
<path fillRule="evenodd" clip-rule="evenodd" d="M21.9721 44.1723L40.7953 24.7474L30.8661 14.5068L12.043 33.9278L21.9721 44.1723Z" fill="#FEFEFE"/>
<path d="M21.9711 43.6918L40.3324 24.7474L30.865 14.9833L12.5037 33.9278L21.9711 43.6918ZM41.0251 24.9896L21.9711 44.6488C18.5074 41.0751 15.0437 37.5014 11.5801 33.9278C18.0071 27.2926 24.438 20.6615 30.865 14.0264L41.2599 24.7474L41.0251 24.9896Z" fill="#171A36"/>
<path fillRule="evenodd" clip-rule="evenodd" d="M78.6067 33.9514L59.7143 14.459L49.7852 24.6995L68.6775 44.1959L78.6067 33.9514Z" fill="#171A36"/>
<path d="M78.1438 33.9514L59.7132 14.9355L50.2459 24.6995L68.6764 43.7155L78.1438 33.9514ZM59.9441 14.2168L79.0674 33.9514L68.6764 44.6724L49.3184 24.6995L59.7132 13.9785L59.9441 14.2168Z" fill="#171A36"/>
<path fillRule="evenodd" clip-rule="evenodd" d="M42.4844 65.4037L61.3845 45.9033L64.2016 48.8139L45.3053 68.3142L42.4844 65.4037Z" fill="#FEFEFE"/>
<path d="M42.2524 65.1654L61.3834 45.4268L64.6662 48.8138C58.2122 55.4728 51.7582 62.1317 45.3043 68.7906L42.0215 65.4036L42.2524 65.1654ZM61.3834 46.3797L42.9451 65.4036L45.3043 67.8337L63.7387 48.8138L61.3834 46.3797Z" fill="#171A36"/>
<path fillRule="evenodd" clip-rule="evenodd" d="M26.4043 48.8142L31.1688 43.8984L50.0688 63.3988L45.3044 68.3146L26.4043 48.8142Z" fill="#171A36"/>
<path d="M26.3825 48.7902L31.17 43.8506C37.4816 50.3666 43.7932 56.8866 50.1124 63.3986C48.5114 65.0504 46.9066 66.7062 45.3056 68.358C38.9864 61.846 32.6748 55.326 26.3594 48.814L26.3825 48.7902ZM31.17 43.9419L26.4479 48.814L45.3056 68.2667L50.0239 63.3986L31.17 43.9419Z" fill="#171A36"/>
<path d="M22.202 43.9336L26.6355 48.5754L26.1698 49.0479L21.7363 44.4061L22.202 43.9336Z" fill="#171A36"/>
<path d="M45.0742 29.0752L49.6578 24.354L50.1158 24.8345L45.5322 29.5517L45.0742 29.0752Z" fill="#171A36"/>
<path d="M1.69273 85.1976C1.69273 85.8845 1.7851 86.4325 1.96983 86.8335C2.15456 87.2346 2.39701 87.5364 2.70105 87.7428C3.00123 87.9453 3.34375 88.0764 3.7286 88.132C4.1096 88.1915 4.50215 88.2193 4.90625 88.2193C5.22183 88.2193 5.56435 88.2074 5.92611 88.1876C6.29172 88.1677 6.65733 88.124 7.02678 88.0486V85.5589H4.17503V84.8561H7.72721V88.5926C7.18072 88.6998 6.68042 88.7792 6.22244 88.8308C5.76447 88.8864 5.2988 88.9102 4.81773 88.9102C4.506 88.9102 4.19427 88.8983 3.88639 88.8666C3.57851 88.8388 3.28217 88.7752 2.99738 88.6799C2.71259 88.5886 2.44704 88.4576 2.20844 88.2908C1.96983 88.124 1.75816 87.9017 1.57728 87.6277C1.3964 87.3537 1.254 87.0162 1.15394 86.6191C1.05388 86.2181 1 85.7455 1 85.1976C1 84.3717 1.11161 83.7165 1.33097 83.2281C1.55419 82.7397 1.84667 82.3664 2.20844 82.1044C2.57405 81.8423 2.98199 81.6716 3.43996 81.5961C3.89794 81.5207 4.36746 81.481 4.84467 81.481C5.28725 81.481 5.73368 81.5008 6.18396 81.5405C6.63423 81.5802 7.08451 81.6358 7.53479 81.7033L7.47321 82.3942C7.04603 82.3069 6.6073 82.2473 6.15702 82.2195C5.70289 82.1878 5.29495 82.1719 4.92549 82.1719C4.65225 82.1719 4.38285 82.1838 4.12115 82.2036C3.85945 82.2235 3.60545 82.2711 3.36684 82.3386C3.12823 82.4101 2.90502 82.5134 2.70105 82.6444C2.49707 82.7794 2.32004 82.9581 2.16995 83.1844C2.01986 83.4068 1.9044 83.6847 1.81973 84.0103C1.73507 84.3399 1.69273 84.733 1.69273 85.1976ZM9.43981 88.7832V81.6199H15.2511L15.1933 82.3228H10.1402V84.8561H14.6661L14.6276 85.5589H10.1402V88.0883H15.2511L15.1933 88.7832H9.43981ZM22.7942 88.7832L17.5871 82.827V88.7832H16.8867V81.6199H17.4601L22.6595 87.588V81.6199H23.3484V88.7832H22.7942ZM25.061 88.7832V81.6199H30.8722L30.8145 82.3228H25.7614V84.8561H30.2911L30.2488 85.5589H25.7614V88.0883H30.8722L30.8145 88.7832H25.061ZM32.5078 88.7832V81.6199C32.808 81.6001 33.1121 81.5842 33.4238 81.5723C33.7355 81.5564 34.0319 81.5445 34.3205 81.5365C34.6053 81.5246 34.8708 81.5167 35.1171 81.5127C35.3634 81.5048 35.579 81.5008 35.7598 81.5008C36.2024 81.5008 36.6065 81.5286 36.9798 81.5802C37.3531 81.6358 37.6764 81.747 37.9496 81.9138C38.2229 82.0805 38.4346 82.3188 38.5885 82.6325C38.7386 82.9422 38.8156 83.3591 38.8156 83.8793C38.8156 84.2565 38.7732 84.5742 38.6924 84.8362C38.6116 85.0943 38.5 85.3167 38.3537 85.4994C38.2075 85.678 38.0305 85.821 37.8188 85.9242C37.6071 86.0275 37.3762 86.1029 37.1222 86.1506L38.6693 88.7315L38.6616 88.7911L37.9573 88.8824L36.3718 86.2498C36.2755 86.2578 36.1755 86.2617 36.0754 86.2617C35.9754 86.2617 35.8714 86.2617 35.7598 86.2617C35.4674 86.2617 35.094 86.2538 34.6361 86.2419C34.1781 86.226 33.7009 86.2061 33.2083 86.1823V88.7832H32.5078ZM38.1151 83.8793C38.1151 83.514 38.0536 83.2162 37.9343 82.9938C37.8149 82.7675 37.6495 82.5967 37.4378 82.4816C37.2261 82.3625 36.976 82.287 36.6835 82.2473C36.391 82.2116 36.0754 82.1957 35.7406 82.1957C35.4558 82.1957 35.0863 82.2036 34.6361 82.2195C34.1858 82.2354 33.7086 82.2592 33.2083 82.283V85.4874C33.7086 85.5152 34.1858 85.5351 34.6361 85.547C35.0863 85.5629 35.4558 85.5669 35.7406 85.5669C36.0754 85.5669 36.391 85.551 36.6835 85.5113C36.976 85.4755 37.2261 85.4001 37.4378 85.281C37.6495 85.1658 37.8149 84.9951 37.9343 84.7767C38.0536 84.5543 38.1151 84.2565 38.1151 83.8793ZM46.0469 87.1234H41.5403L40.7244 88.7832H39.9432L43.5069 81.6199H44.0919L47.6518 88.7832H46.8744L46.0469 87.1234ZM41.852 86.492H45.7352L43.7994 82.565L41.852 86.492ZM50.4073 88.7832V82.3228H47.4286V81.6199H53.9903L53.9326 82.3228H51.1V88.7832H50.4073ZM55.7721 88.7832V81.6199H56.4726V88.7832H55.7721ZM61.7681 88.9221C61.2794 88.9221 60.8176 88.8666 60.3788 88.7514C59.9401 88.6362 59.5552 88.4377 59.2243 88.1558C58.8933 87.8699 58.6316 87.4847 58.4392 87.0043C58.2429 86.5238 58.1467 85.9163 58.1467 85.1857C58.1467 84.4749 58.2391 83.8872 58.4238 83.4147C58.6085 82.9422 58.8625 82.561 59.1819 82.2751C59.5052 81.9852 59.8824 81.7827 60.3211 81.6596C60.7598 81.5405 61.2294 81.481 61.7374 81.481C62.2223 81.481 62.6879 81.5365 63.1228 81.6517C63.5616 81.7669 63.9464 81.9654 64.2774 82.2473C64.6084 82.5332 64.8701 82.9184 65.0663 83.3988C65.2588 83.8793 65.3588 84.4868 65.3588 85.2174C65.3588 85.9282 65.2664 86.5198 65.0817 86.9924C64.897 87.4688 64.643 87.85 64.3197 88.132C64.0003 88.4179 63.6193 88.6204 63.1844 88.7395C62.7457 88.8626 62.2723 88.9221 61.7681 88.9221ZM61.7681 88.2193C62.1761 88.2193 62.5532 88.1717 62.9035 88.0724C63.2575 87.9771 63.5616 87.8143 63.8194 87.58C64.0811 87.3497 64.2851 87.044 64.4352 86.6588C64.5814 86.2737 64.6584 85.7932 64.6584 85.2174C64.6584 84.6218 64.5776 84.1294 64.4236 83.7403C64.2697 83.3512 64.058 83.0415 63.7925 82.8112C63.5231 82.5809 63.2152 82.4181 62.8611 82.3228C62.5071 82.2314 62.1338 82.1838 61.7374 82.1838C61.3294 82.1838 60.9484 82.2314 60.5982 82.3307C60.248 82.426 59.9439 82.5888 59.6822 82.8231C59.4244 83.0534 59.2204 83.3591 59.0703 83.7443C58.9202 84.1294 58.8471 84.6099 58.8471 85.1857C58.8471 85.7813 58.9241 86.2737 59.0819 86.6628C59.2358 87.0519 59.4475 87.3616 59.713 87.5919C59.9786 87.8222 60.2903 87.985 60.6405 88.0803C60.9946 88.1717 61.3717 88.2193 61.7681 88.2193ZM73.0174 88.7832L67.8103 82.827V88.7832H67.1099V81.6199H67.6833L72.8827 87.588V81.6199H73.5716V88.7832H73.0174ZM78.5746 88.7832V81.6199H79.2751V88.7832H78.5746ZM84.105 88.7832V82.3228H81.1262V81.6199H87.6841L87.6264 82.3228H84.7938V88.7832H84.105Z" fill="#171A36" stroke="#171A36" stroke-width="0.423303"/>
<path d="M30.6348 53.6578L35.6532 48.48L36.0227 48.8612L31.0042 54.039L30.6348 53.6578Z" fill="#FEFEFE"/>
<path d="M35.4785 58.6534L40.497 53.4756L40.8626 53.8568L35.848 59.0346L35.4785 58.6534Z" fill="#FEFEFE"/>
<path d="M40.373 63.72L45.4069 58.5303L45.7764 58.9075L40.7425 64.1012L40.373 63.72Z" fill="#FEFEFE"/>
<path d="M56.7991 50.2554L59.851 53.4042L59.4816 53.7854L56.4297 50.6366L56.7991 50.2554Z" fill="#171A36"/>
<path d="M52.0003 55.3418L55.0522 58.4906L54.6827 58.8718L51.6309 55.723L52.0003 55.3418Z" fill="#171A36"/>
</svg>
